<svg width="34" height="34" viewBox="0 0 34 34" fill="none" xmlns="http://www.w3.org/2000/svg">
<path d="M4.25 8.50004L8.5 2.83337H25.5L29.75 8.50004M4.25 8.50004V28.3334C4.25 29.0848 4.54851 29.8055 5.07986 30.3368C5.61122 30.8682 6.33189 31.1667 7.08333 31.1667H26.9167C27.6681 31.1667 28.3888 30.8682 28.9201 30.3368C29.4515 29.8055 29.75 29.0848 29.75 28.3334V8.50004M4.25 8.50004H29.75M22.6667 14.1667C22.6667 15.6696 22.0696 17.1109 21.0069 18.1736C19.9442 19.2364 18.5029 19.8334 17 19.8334C15.4971 19.8334 14.0558 19.2364 12.9931 18.1736C11.9304 17.1109 11.3333 15.6696 11.3333 14.1667" stroke="#1E1E1E" stroke-width="2" stroke-linecap="round" stroke-linejoin="round"/>
</svg>
